# xmcd
# Track frame offsets:
# 150
# 12435
# 24232
# 33412
# 42378
# 56201
# 67554
# 77555
# 86972
# 97997
# 108135
# 118349
# 127358
# 136224
# 148109
# 156601
#
# Disc length: 2212 seconds
# Revision: 0
# Processed by: cddbd v1.5.2PL0 Copyright (c) Steve Scherf et al.
# Submitted via: VisiTrax 2.11.3.279 - For more info visit www.synapsa.com
#
DISCID=df08a210
DTITLE=Johnny Cash - My Best To You [Disc 3]
DYEAR=1900
DGENRE=Classic Country
TTITLE0=That's Enough
TTITLE1=I Still Miss Someone
TTITLE2=One More Ride
TTITLE3=Pickin' Time
TTITLE4=Don't Take Your Guns To Town
TTITLE5=I'd Rather Die Young
TTITLE6=Shepherd Of My Heart
TTITLE7=Luther Played The Boogie
TTITLE8=I Love You Because
TTITLE9=Goodbye Little Darlin'
TTITLE10=Straight A's In Love
TTITLE11=Life Goes On
TTITLE12=Katy Too
TTITLE13=Thanks A Lot
TTITLE14=Drink To Me
TTITLE15=It Was Jesus
EXTD=
EXTT0=
EXTT1=
EXTT2=
EXTT3=
EXTT4=
EXTT5=
EXTT6=
EXTT7=
EXTT8=
EXTT9=
EXTT10=
EXTT11=
EXTT12=
EXTT13=
EXTT14=
EXTT15=
PLAYORDER=
